<svg width="56" height="56" viewBox="0 0 56 56" fill="none" xmlns="http://www.w3.org/2000/svg">
<path d="M28 55.5C43.1878 55.5 55.5 43.1878 55.5 28C55.5 12.8122 43.1878 0.5 28 0.5C12.8122 0.5 0.5 12.8122 0.5 28C0.5 43.1878 12.8122 55.5 28 55.5Z" fill="#003D1C" stroke="#53FCA1"/>
<path d="M30.6251 36.7C29.7251 33.925 29.0501 32.2 28.5251 31.45C29.8751 31.525 30.9251 31.825 30.9251 31.825C28.0751 29.35 25.0001 31.75 25.0001 31.75C25.8251 31.525 26.6501 31.45 27.4001 31.45C26.8751 32.2 26.2001 33.925 25.3001 36.775C22.7501 44.35 16.6751 40.825 19.0001 32.35C19.7501 29.65 21.1751 25 23.1251 21.925C26.5751 16.525 29.6501 16.375 32.8001 21.925C34.6751 25.225 35.9501 29.8 36.9251 32.35C39.6251 40.075 33.1751 44.35 30.6251 36.7ZM29.5751 29.8C29.5751 29.8 29.2751 29.125 28.6751 28.825C29.1251 28.45 29.3501 27.85 29.3501 27.175C29.3501 26.125 28.6751 25.225 27.9251 25.225C27.1751 25.225 26.5001 26.125 26.5001 27.175C26.5001 27.925 26.8001 28.6 27.3251 28.9C27.0251 29.125 26.8001 29.35 26.5001 29.8C26.4251 29.8 27.7751 28.75 29.5751 29.8Z" fill="#53FCA1"/>
</svg>
