<svg width="63" height="56" viewBox="0 0 63 56" fill="none" xmlns="http://www.w3.org/2000/svg">
<path d="M21.7652 6.15144L3.01634 38.6245C-1.30143 46.0824 4.11345 55.5 12.7491 55.5H50.2491C58.9553 55.5 64.3777 46.0853 59.981 38.6231C59.9806 38.6224 59.9802 38.6218 59.9798 38.6211L41.2329 6.15144C41.2327 6.15104 41.2324 6.15063 41.2322 6.15022C36.9148 -1.38355 26.0828 -1.38341 21.7657 6.15066C21.7655 6.15092 21.7654 6.15118 21.7652 6.15144Z" fill="#003D1C" stroke="#53FCA1"/>
<path d="M30.374 43C28.799 45.4 25.124 44.8 24.299 38.65C22.949 28.975 24.374 24.625 25.574 22.675C27.299 19.975 28.724 22.3 28.799 24.1C30.299 21.775 32.549 21.25 34.874 22.525C37.799 24.175 38.924 28.45 37.799 31.375C37.424 32.2 36.824 32.875 36.074 33.4C44.099 34.75 37.274 49.675 30.374 43ZM34.199 30.1C33.899 30.325 33.674 30.625 33.374 31.075C33.374 31.075 34.649 29.95 36.524 31.075C36.524 31.075 36.224 30.4 35.624 30.025C37.049 28.825 36.074 26.35 34.874 26.35C33.524 26.35 32.699 29.125 34.199 30.1ZM37.049 40.75C37.049 40.75 36.749 40.075 36.149 39.775C36.599 39.4 36.824 38.8 36.824 38.125C36.824 37.075 36.149 36.175 35.399 36.175C34.574 36.175 33.974 37 33.974 38.125C33.974 38.875 34.274 39.55 34.799 39.85C34.499 40.075 34.274 40.3 33.974 40.75C33.899 40.825 35.174 39.7 37.049 40.75Z" fill="#53FCA1"/>
</svg>
