<svg width="56" height="56" viewBox="0 0 56 56" fill="none" xmlns="http://www.w3.org/2000/svg">
<path d="M10 55.5H46C51.3039 55.5 55.5 51.2234 55.5 46V10C55.5 4.77386 51.2261 0.5 46 0.5H10C4.77386 0.5 0.5 4.77386 0.5 10V46C0.5 51.2261 4.77386 55.5 10 55.5Z" fill="#003D1C" stroke="#53FCA1"/>
<path d="M36.0251 24.175C38.2001 29.725 31.6751 29.8 30.4001 25.975C29.8001 24.175 27.2501 24.175 26.0501 25.3C26.0501 25.3 27.0251 25.075 27.9251 25.225C26.8751 26.125 26.0501 28 26.3501 30.25C26.9501 35.125 30.9251 35.65 32.0501 33.25C33.4001 30.475 37.0001 32.95 35.2751 36.1C33.7001 38.95 31.1501 40.825 28.2251 40.825C23.4251 40.825 19.6001 35.725 19.6001 29.425C19.6001 23.125 23.5001 18.025 28.2251 18.025C31.6751 17.95 34.6001 20.5 36.0251 24.175Z" fill="#53FCA1"/>
</svg>
