<svg width="18" height="25" viewBox="0 0 18 25" fill="none" xmlns="http://www.w3.org/2000/svg">
<path d="M3.86605 24.494C2.63098 23.2078 1.64199 21.7592 1.14982 20.0273C0.880522 19.0708 0.694797 18.0911 0.471927 17.1207C0.32799 16.5032 0.184053 15.8856 0.0401166 15.2727C-0.00167152 15.087 -0.0156009 14.9013 0.0215441 14.7202C0.0865478 14.3998 0.26763 14.1398 0.574076 14.0237C1.47948 13.6848 2.41739 13.9448 2.64955 15.0081C2.86313 15.9738 3.09529 16.9303 3.3228 17.8915C3.33673 17.9565 3.3553 18.0215 3.39709 18.0865C3.39709 17.9982 3.39709 17.9054 3.39709 17.8172C3.39709 14.372 3.39709 10.9268 3.39709 7.48157C3.39709 6.93368 3.57353 6.47866 4.07035 6.19543C4.93861 5.69861 5.99724 6.31615 6.00653 7.3237C6.01581 8.66092 6.01117 9.99814 6.01117 11.3307C6.01117 11.405 6.01117 11.4793 6.01117 11.5768C6.45691 10.8618 6.96765 10.6017 7.5759 10.7596C8.18415 10.9221 8.53239 11.3957 8.56953 12.1526C8.71347 11.809 8.91312 11.5629 9.21028 11.4097C9.51208 11.2564 9.82782 11.2193 10.1528 11.3121C10.7657 11.4839 11.0815 11.9622 11.114 12.7515C11.1697 12.7376 11.1697 12.6819 11.1883 12.6447C11.4668 12.0968 12.0612 11.8043 12.6369 11.939C13.2359 12.0783 13.6537 12.589 13.6537 13.2112C13.6584 14.9106 13.6909 16.6099 13.6398 18.3093C13.5795 20.408 12.9712 22.3628 11.8754 24.1643C11.8104 24.2711 11.7547 24.3779 11.6944 24.4847C9.08956 24.494 6.47548 24.494 3.86605 24.494Z" fill="white"/>
<path d="M9.5631 5.15073C9.5631 4.31496 9.55846 3.48384 9.5631 2.64808C9.57239 1.71017 10.1296 0.995132 10.9978 0.786191C11.1278 0.753689 11.2578 0.749046 11.3878 0.749046C12.8133 0.749046 14.2341 0.749046 15.6549 0.749046C16.6299 0.753689 17.4007 1.46409 17.461 2.43914C17.5307 3.56278 17.4796 4.69106 17.4843 5.81933C17.4889 6.5158 17.5121 7.20763 17.461 7.9041C17.4007 8.73986 16.6996 9.46419 15.8638 9.53848C15.0002 9.61277 14.1366 9.56169 13.273 9.56633C12.609 9.57098 11.945 9.61277 11.2811 9.54312C10.2271 9.43168 9.57703 8.69807 9.56774 7.62551C9.56774 7.61158 9.56774 7.59301 9.56774 7.57908C9.5631 6.77118 9.5631 5.96327 9.5631 5.15073Z" fill="white"/>
<path d="M8.653 5.14609C8.653 6.02828 8.66693 6.90583 8.64835 7.78802C8.62978 8.54485 8.23976 9.07881 7.56186 9.40847C7.39007 9.49205 7.32506 9.45026 7.32506 9.25989C7.32971 8.61914 7.32971 7.97839 7.32506 7.33764C7.32042 6.00971 6.31751 4.85821 5.05922 4.7282C3.64771 4.58427 2.44514 5.42003 2.14334 6.77118C2.08298 7.03584 2.06905 7.30514 2.06905 7.57444C2.07369 8.12233 2.06905 8.67022 2.06905 9.2181C2.06905 9.48276 2.0319 9.50598 1.79046 9.38526C1.13578 9.05095 0.764332 8.50771 0.755046 7.77874C0.741117 6.03292 0.741117 4.2964 0.759689 2.55987C0.768976 1.51517 1.56759 0.753693 2.62158 0.74905C4.01916 0.74905 5.41674 0.744407 6.81432 0.74905C7.87295 0.74905 8.653 1.53374 8.65764 2.59701C8.65764 3.4467 8.653 4.29639 8.653 5.14609Z" fill="white"/>
</svg>
