<svg width="58" height="56" viewBox="0 0 58 56" fill="none" xmlns="http://www.w3.org/2000/svg">
<path d="M4.56772 15.8936L4.56771 15.8936L4.56428 15.8961C1.13721 18.4256 -0.334933 22.8356 0.972432 26.9212L0.972429 26.9212L0.972966 26.9228L8.03025 48.715C8.03032 48.7153 8.03039 48.7155 8.03046 48.7157C9.33942 52.8052 13.103 55.5 17.4257 55.5H40.3829C44.6306 55.5 48.4688 52.7255 49.7774 48.7179L49.7778 48.7167L56.8356 26.9228L56.8362 26.9212C58.1435 22.8356 56.6714 18.4256 53.2443 15.8961L53.2417 15.8942L34.7079 2.40094C34.7073 2.40055 34.7068 2.40016 34.7063 2.39978C31.273 -0.133227 26.6133 -0.133258 23.18 2.39968C23.1794 2.4001 23.1789 2.40052 23.1783 2.40094L4.56772 15.8936Z" fill="#003D1C" stroke="#53FCA1"/>
<path d="M38.444 29.4057C38.444 35.9206 34.4109 41.1946 29.5247 41.1946C28.3614 41.1946 27.2756 40.8844 26.2673 40.419C24.4835 42.2029 21.226 41.1946 20.3729 35.3777C18.9768 25.3727 20.4504 20.8743 21.6914 18.9354C23.165 16.6086 24.4059 17.8495 24.8712 19.4007C26.2673 18.3149 27.8185 17.6169 29.6023 17.6169C34.4109 17.6169 38.444 22.8908 38.444 29.4057ZM33.6354 36.5411C33.6354 36.5411 33.17 35.688 32.472 35.2226C33.0149 34.7573 33.4027 33.9041 33.4027 32.9734C33.4027 31.4998 32.5495 30.3364 31.3862 30.3364C30.3003 30.3364 29.3696 31.4998 29.3696 32.9734C29.3696 33.9817 29.835 34.9124 30.4555 35.3002C30.0677 35.5328 29.6799 35.9982 29.2921 36.5411C29.3696 36.6187 31.1535 35.1451 33.6354 36.5411Z" fill="#53FCA1"/>
</svg>
