<svg width="62" height="56" viewBox="0 0 62 56" fill="none" xmlns="http://www.w3.org/2000/svg">
<path d="M1.74547 23.2429L1.74551 23.2429L12.1647 5.21606C12.1647 5.21594 12.1648 5.21582 12.1649 5.21571C13.8257 2.33136 16.9683 0.5 20.3714 0.5H41.1279C44.5226 0.5 47.6709 2.24181 49.3358 5.21827C49.3364 5.21939 49.3371 5.22051 49.3377 5.22163L59.7537 23.2429L59.7573 23.2492L59.7573 23.2492C61.4132 26.2124 61.4132 29.7876 59.7573 32.7508L59.7538 32.7571L59.7537 32.7571L49.3345 50.7839L1.74547 23.2429ZM1.74547 23.2429L1.74194 23.2492M1.74547 23.2429L1.74194 23.2492M1.74194 23.2492C0.0860214 26.2124 0.0860214 29.7876 1.74194 32.7508L1.74189 32.7508M1.74194 23.2492L1.74189 32.7508M1.74189 32.7508L1.74551 32.7571M1.74189 32.7508L1.74551 32.7571M1.74551 32.7571L12.1615 50.7784M1.74551 32.7571L12.1615 50.7784M12.1615 50.7784C12.1621 50.7794 12.1627 50.7805 12.1633 50.7816M12.1615 50.7784L12.1633 50.7816M12.1633 50.7816C13.8282 53.7581 16.9766 55.5 20.3714 55.5H41.1279C44.5308 55.5 47.6732 53.6688 49.3341 50.7847L12.1633 50.7816Z" fill="#003D1C" stroke="#53FCA1"/>
<path d="M37.6547 17.291C42.1202 16.8775 42.1202 23.9066 37.6547 23.9893H30.7083V27.1317H32.3622C33.9334 27.1317 35.1738 28.3721 35.1738 29.9433C35.1738 31.5145 33.9334 32.755 32.3622 32.755H30.7083V34.9051H37.6547C42.1202 34.9051 42.1202 41.9341 37.6547 41.6034C33.1065 41.1899 28.4755 40.8591 23.9273 40.4456C19.4617 40.4456 19.4617 34.657 23.9273 34.7397V24.8162C25.0023 24.4028 26.1601 24.4854 26.1601 24.4854C25.2504 23.9066 24.01 24.1547 24.01 24.1547C19.5444 24.3201 19.4617 18.4487 23.9273 18.4487L37.6547 17.291Z" fill="#53FCA1"/>
</svg>
