<svg width="21" height="21" viewBox="0 0 21 21" fill="none" xmlns="http://www.w3.org/2000/svg">
<path d="M10.263 20.4521C7.85662 20.4521 5.45028 20.4301 3.04944 20.4576C1.80781 20.4741 0.632112 19.5621 0.428837 18.271C0.406861 18.1446 0.401367 18.0128 0.401367 17.8809C0.401367 13.0023 0.401367 8.12374 0.401367 3.24514C0.401367 1.8332 1.5496 0.684975 2.96703 0.679482C7.84562 0.679482 12.7242 0.679482 17.6028 0.679482C19.0203 0.679482 20.163 1.82771 20.1685 3.24514C20.1685 8.12374 20.1685 13.0023 20.1685 17.8809C20.1685 19.2984 19.0203 20.4411 17.6028 20.4466C15.158 20.4576 12.7132 20.4521 10.263 20.4521ZM1.74738 11.1619C1.98362 10.9751 2.18689 10.8212 2.38467 10.6674C3.8955 9.48623 5.40633 8.29954 6.91715 7.11835C7.62038 6.56896 8.41699 6.63489 9.0378 7.27768C9.20812 7.45348 9.37293 7.64027 9.54325 7.81608C10.642 8.99178 11.7463 10.1675 12.8451 11.3432C13.0319 11.541 13.0319 11.541 13.2187 11.3432C13.7681 10.7608 14.3065 10.1675 14.8614 9.59061C15.5096 8.91486 16.4216 8.90937 17.0864 9.56864C17.6083 10.0851 18.1193 10.607 18.6412 11.1289C18.6906 11.1784 18.7291 11.2498 18.8225 11.2553C18.8225 11.2113 18.828 11.1729 18.828 11.1399C18.828 8.54677 18.828 5.95913 18.828 3.36601C18.828 3.21218 18.806 3.06384 18.762 2.921C18.5972 2.37161 18.1192 2.03648 17.4765 2.03099C16.5535 2.02549 15.625 2.03099 14.702 2.03099C10.8618 2.03099 7.02703 2.03099 3.18678 2.03099C2.91209 2.03099 2.63739 2.05846 2.39566 2.2013C1.92318 2.47599 1.75287 2.90452 1.75287 3.42644C1.75287 5.92617 1.75287 8.4314 1.75287 10.9311C1.74738 10.9916 1.74738 11.052 1.74738 11.1619Z" fill="white"/>
<path d="M11.7957 6.50853C11.7957 5.77235 12.3945 5.17351 13.1307 5.16801C13.8669 5.16801 14.4877 5.78333 14.4822 6.51402C14.4767 7.23373 13.8449 7.86003 13.1307 7.84905C12.3945 7.84355 11.7957 7.23922 11.7957 6.50853Z" fill="white"/>
</svg>
