<svg width="20" height="20" viewBox="0 0 20 20" fill="none" xmlns="http://www.w3.org/2000/svg">
<path d="M9.72106 10.2157C9.72655 10.6882 9.38043 11.1332 8.90796 11.2596C8.42449 11.3859 7.91356 11.1717 7.6938 10.7157C7.48503 10.2871 7.29824 9.84214 7.11145 9.40263C7.04003 9.23232 6.95213 9.16639 6.75984 9.16639C5.54019 9.17738 4.32054 9.17188 3.10089 9.16639C2.93058 9.16639 2.84268 9.22133 2.77675 9.38065C2.60644 9.7927 2.42514 10.1992 2.23834 10.6058C2.02408 11.0728 1.56259 11.3365 1.11759 11.2651C0.612146 11.1882 0.260535 10.831 0.178126 10.3091C0.145163 10.0949 0.200102 9.90257 0.288005 9.71029C1.39228 7.18309 2.50205 4.65039 3.60633 2.12319C3.71071 1.88695 3.8151 1.64522 3.91948 1.40898C4.11177 0.963972 4.4469 0.700264 4.93036 0.700264C5.41383 0.700264 5.74896 0.958477 5.94674 1.40348C6.39724 2.44183 6.85323 3.47469 7.30374 4.50755C8.0619 6.23813 8.82006 7.96872 9.57822 9.70479C9.66612 9.86412 9.70458 10.0344 9.72106 10.2157ZM4.92487 4.51854C4.91938 4.52952 4.90839 4.54601 4.8974 4.56249C4.55678 5.33163 4.22165 6.10078 3.88103 6.86993C3.80961 7.02926 3.91948 7.00728 4.00739 7.00728C4.61721 7.00728 5.22704 7.00728 5.83686 7.00728C6.06211 7.00728 6.0676 7.00179 5.97421 6.79302C5.66105 6.07331 5.34241 5.35361 5.02376 4.63391C5.00728 4.58996 4.99629 4.54051 4.92487 4.51854Z" fill="white"/>
<path d="M9.69365 17.5335C12.4846 17.5335 15.27 17.5335 18.0609 17.5335C18.6158 17.5335 19.0443 17.8631 19.1542 18.374C19.297 19.0388 18.83 19.6321 18.1158 19.6871C18.0554 19.6926 17.995 19.6926 17.929 19.6926C12.4241 19.6926 6.92472 19.6926 1.41981 19.6926C1.02425 19.6926 0.672641 19.5937 0.419921 19.2695C0.150719 18.9179 0.101274 18.5279 0.304549 18.1323C0.50233 17.7367 0.842952 17.5389 1.28796 17.5389C4.08436 17.5335 6.88626 17.5335 9.69365 17.5335Z" fill="white"/>
<path d="M9.67163 15.4677C6.87523 15.4677 4.07882 15.4677 1.28242 15.4677C0.722039 15.4677 0.309995 15.1271 0.20561 14.5887C0.0957322 14.0173 0.491294 13.4405 1.06816 13.3471C1.19452 13.3251 1.32637 13.3141 1.45822 13.3141C6.94115 13.3141 12.4241 13.3141 17.9015 13.3141C18.2861 13.3141 18.6432 13.38 18.9069 13.6877C19.1981 14.0338 19.2695 14.4239 19.0772 14.8359C18.8849 15.2425 18.5553 15.4622 18.0993 15.4622C15.2919 15.4677 12.4845 15.4677 9.67163 15.4677Z" fill="white"/>
<path d="M15.4677 2.83722C14.6107 2.83722 13.7536 2.83722 12.9021 2.83722C12.2538 2.83722 11.7813 2.39221 11.7703 1.78239C11.7648 1.16707 12.2373 0.683602 12.8856 0.683602C14.6162 0.678108 16.3522 0.678108 18.0828 0.683602C18.7146 0.689096 19.1981 1.17805 19.1871 1.77689C19.1816 2.37573 18.6926 2.83722 18.0554 2.83722C17.1928 2.83722 16.3303 2.83722 15.4677 2.83722Z" fill="white"/>
<path d="M15.484 9.10577C16.3631 9.10577 17.2366 9.10028 18.1156 9.10577C18.6046 9.11127 19.0221 9.4409 19.143 9.90239C19.2693 10.3749 19.0716 10.8583 18.6485 11.1056C18.4727 11.2099 18.2859 11.2594 18.0827 11.2594C16.3411 11.2594 14.605 11.2649 12.8634 11.2594C12.2481 11.2594 11.7701 10.7814 11.7646 10.1881C11.7646 9.58375 12.2426 9.11127 12.8744 9.10577C13.7425 9.10577 14.616 9.10577 15.484 9.10577Z" fill="white"/>
<path d="M15.4621 4.90842C16.3301 4.90842 17.2037 4.90842 18.0717 4.90842C18.687 4.90842 19.154 5.34244 19.187 5.93579C19.2199 6.47968 18.7969 6.95765 18.2091 7.04006C18.1102 7.05105 18.0058 7.06204 17.9014 7.06204C16.2862 7.06204 14.671 7.06204 13.0558 7.06204C12.8305 7.06204 12.6053 7.05105 12.3965 6.94667C11.9405 6.73241 11.6933 6.23795 11.7977 5.75998C11.9075 5.25454 12.3196 4.91392 12.836 4.90842C13.704 4.90842 14.5831 4.90842 15.4621 4.90842Z" fill="white"/>
</svg>
