<svg width="23" height="20" viewBox="0 0 23 20" fill="none" xmlns="http://www.w3.org/2000/svg">
<path d="M22.4756 1.13565C22.4756 7.08556 22.4756 13.0355 22.4756 18.9909C22.3218 19.3754 22.0196 19.4853 21.635 19.4853C18.8441 19.4798 16.0532 19.4853 13.2568 19.4853C9.1199 19.4853 4.98298 19.4853 0.846063 19.4853C0.25272 19.4853 0 19.2381 0 18.6503C0 12.9366 0 7.21741 0 1.50374C0 0.921385 0.236239 0.685147 0.829582 0.685147C7.77939 0.685147 14.7292 0.685146 21.6845 0.679653C22.0526 0.674159 22.3163 0.800518 22.4756 1.13565ZM8.49359 10.0688C8.49359 10.7994 8.4881 11.5301 8.49909 12.2608C8.50458 12.6674 8.77378 12.997 9.16385 13.0794C9.44404 13.1399 9.69676 13.052 9.93849 12.9091C11.1362 12.2059 12.3393 11.5137 13.537 10.8104C14.1743 10.4368 14.1688 9.71165 13.537 9.33257C13.2239 9.14578 12.9052 8.96448 12.5921 8.77768C11.6746 8.24477 10.7681 7.70088 9.8451 7.17895C9.17484 6.80537 8.51007 7.20093 8.50458 7.95909C8.49359 8.66781 8.49359 9.37103 8.49359 10.0688ZM2.42831 3.13543C2.72498 3.13543 3.02715 3.12994 3.32382 3.13543C3.49413 3.14093 3.56006 3.06951 3.55456 2.89919C3.54358 2.67394 3.54907 2.44869 3.55456 2.22344C3.55456 2.0861 3.49962 2.02566 3.35678 2.02566C2.75245 2.02566 2.14812 2.02566 1.5383 2.02566C1.39545 2.02566 1.34052 2.0861 1.34601 2.22344C1.3515 2.45419 1.3515 2.69043 1.34601 2.92117C1.34052 3.06951 1.40095 3.13543 1.55478 3.12994C1.84596 3.12994 2.13713 3.13543 2.42831 3.13543ZM9.53194 2.03116C9.24077 2.03116 8.94959 2.03665 8.65841 2.03116C8.51007 2.03116 8.44964 2.09159 8.44964 2.23992C8.45514 2.47067 8.45514 2.70691 8.44964 2.93765C8.44964 3.075 8.50458 3.14093 8.64193 3.14093C9.22978 3.14093 9.82312 3.14093 10.411 3.14093C10.5538 3.14093 10.6088 3.08049 10.6088 2.94315C10.6088 2.7124 10.6033 2.47616 10.6088 2.24542C10.6142 2.0806 10.5373 2.03116 10.3835 2.03116C10.1033 2.03665 9.81763 2.03116 9.53194 2.03116ZM13.0316 3.13543C13.3282 3.13543 13.6304 3.13543 13.9271 3.13543C14.0479 3.13543 14.1249 3.09698 14.1249 2.95963C14.1249 2.70691 14.1249 2.44869 14.1249 2.19597C14.1249 2.07511 14.0589 2.03116 13.9436 2.03116C13.3447 2.03116 12.7459 2.03116 12.147 2.03116C12.0207 2.03116 11.9603 2.0861 11.9603 2.21795C11.9603 2.44869 11.9657 2.68493 11.9603 2.91568C11.9548 3.09148 12.0372 3.14642 12.1965 3.14093C12.4767 3.12994 12.7569 3.13543 13.0316 3.13543ZM2.46677 18.1009C2.75245 18.1009 3.03814 18.0954 3.31833 18.1009C3.48314 18.1064 3.56555 18.0514 3.55456 17.8756C3.54358 17.6668 3.54907 17.4526 3.55456 17.2438C3.56006 17.0845 3.49413 17.0186 3.33481 17.0241C2.74696 17.0295 2.15361 17.0295 1.56577 17.0241C1.40644 17.0241 1.34601 17.0955 1.3515 17.2493C1.357 17.4581 1.357 17.6723 1.3515 17.8811C1.34601 18.0404 1.41194 18.1064 1.57126 18.1009C1.86793 18.0954 2.1646 18.1009 2.46677 18.1009ZM6.00485 2.03116C5.71917 2.03116 5.43348 2.03665 5.15329 2.03116C5.01045 2.03116 4.93354 2.0806 4.93354 2.23443C4.93354 2.47067 4.93354 2.70141 4.93354 2.93765C4.93354 3.08599 4.99946 3.14642 5.1478 3.14642C5.71917 3.14093 6.28504 3.14093 6.85641 3.14642C6.99925 3.14642 7.07616 3.09698 7.07067 2.94315C7.06518 2.7124 7.06518 2.47616 7.07067 2.23992C7.07616 2.09159 7.00474 2.03116 6.85641 2.03116C6.57622 2.03116 6.29053 2.03116 6.00485 2.03116ZM16.5696 3.13543C16.8443 3.13543 17.1245 3.12994 17.3992 3.13543C17.5805 3.14093 17.6465 3.06401 17.641 2.88821C17.63 2.66845 17.6355 2.44869 17.641 2.22894C17.6465 2.0806 17.5805 2.02017 17.4322 2.02017C16.8608 2.02566 16.295 2.02566 15.7236 2.02017C15.5643 2.02017 15.4983 2.0861 15.5038 2.24542C15.5093 2.47067 15.5093 2.69592 15.5038 2.92666C15.5038 3.075 15.5698 3.13543 15.7181 3.13543C16.0038 3.13543 16.284 3.13543 16.5696 3.13543ZM20.0693 3.13543C20.355 3.13543 20.6406 3.12994 20.9208 3.13543C21.0747 3.14093 21.1516 3.08599 21.1461 2.92117C21.1406 2.69592 21.1406 2.47067 21.1461 2.23992C21.1516 2.07511 21.0802 2.02017 20.9208 2.02566C20.3605 2.03116 19.7946 2.03116 19.2342 2.02566C19.0859 2.02566 19.0199 2.0806 19.0199 2.22894C19.0254 2.45968 19.0254 2.69592 19.0199 2.93216C19.0144 3.08599 19.0859 3.14093 19.2342 3.13543C19.5144 3.12994 19.7891 3.13543 20.0693 3.13543ZM9.53194 18.1009C9.82312 18.1009 10.1143 18.1009 10.411 18.1009C10.5483 18.1009 10.6142 18.0459 10.6142 17.9031C10.6142 17.6778 10.6088 17.4526 10.6142 17.2218C10.6142 17.068 10.5428 17.0186 10.4 17.0186C9.82312 17.0241 9.24626 17.0241 8.6694 17.0186C8.52656 17.0186 8.45514 17.0735 8.45514 17.2273C8.46063 17.4471 8.46063 17.6668 8.45514 17.8866C8.44964 18.0514 8.52656 18.1064 8.68039 18.1009C8.96058 18.0954 9.24626 18.1009 9.53194 18.1009ZM13.048 18.1009C13.3392 18.1009 13.6304 18.1009 13.9216 18.1009C14.0534 18.1009 14.1304 18.0569 14.1249 17.9141C14.1194 17.6833 14.1249 17.4471 14.1249 17.2163C14.1249 17.09 14.0699 17.0295 13.9436 17.0295C13.3447 17.0295 12.7459 17.0295 12.1525 17.0295C12.0262 17.0295 11.9657 17.09 11.9712 17.2163C11.9712 17.4471 11.9767 17.6833 11.9712 17.9141C11.9712 18.0569 12.0482 18.1009 12.18 18.1009C12.4602 18.0954 12.7514 18.1009 13.048 18.1009ZM5.99386 18.0954C6.28504 18.0954 6.57622 18.0954 6.86739 18.0954C7.00474 18.0954 7.07067 18.0404 7.06517 17.8976C7.05968 17.6723 7.05968 17.4471 7.06517 17.2218C7.06517 17.068 6.99376 17.0186 6.85091 17.0186C6.27955 17.0186 5.71367 17.0186 5.1423 17.0186C4.99946 17.0186 4.92804 17.079 4.92804 17.2273C4.92804 17.4471 4.93354 17.6668 4.92804 17.8811C4.92255 18.0459 5.00496 18.1009 5.15879 18.0954C5.43898 18.0954 5.71367 18.1009 5.99386 18.0954ZM16.5532 18.1009C16.8443 18.1009 17.1355 18.0954 17.4267 18.1009C17.575 18.1009 17.641 18.0404 17.6355 17.8921C17.63 17.6723 17.63 17.4526 17.6355 17.2383C17.6355 17.0955 17.5805 17.0241 17.4267 17.0241C16.8498 17.0241 16.273 17.0241 15.6961 17.0241C15.5588 17.0241 15.4928 17.0845 15.4928 17.2218C15.4928 17.4471 15.4928 17.6723 15.4928 17.8976C15.4928 18.0514 15.5698 18.1009 15.7126 18.1009C16.0038 18.0954 16.2785 18.1009 16.5532 18.1009ZM20.0638 18.1009C20.3495 18.1009 20.6351 18.0954 20.9153 18.1009C21.0692 18.1064 21.1461 18.0569 21.1406 17.8866C21.1351 17.6668 21.1351 17.4471 21.1406 17.2328C21.1461 17.0845 21.0802 17.0186 20.9318 17.0241C20.3605 17.0241 19.7946 17.0241 19.2232 17.0241C19.0749 17.0241 19.0144 17.0955 19.0144 17.2383C19.0199 17.4581 19.0199 17.6778 19.0144 17.8921C19.0089 18.0404 19.0749 18.1009 19.2232 18.1009C19.5089 18.0954 19.7891 18.1009 20.0638 18.1009Z" fill="#00612D"/>
</svg>
