<svg width="23" height="19" viewBox="0 0 23 19" fill="none" xmlns="http://www.w3.org/2000/svg">
<path d="M22.4013 10.4463C22.3127 11.0668 22.2536 11.6874 22.1058 12.2784C21.633 14.3173 20.7466 16.1493 19.4168 17.745C19.0622 18.1883 18.4417 18.2474 17.9985 17.9223C17.437 17.5086 17.3188 16.9176 17.6439 16.4153C17.9098 16.0312 18.2053 15.6766 18.4712 15.2629C19.2691 14.0218 19.801 12.6625 20.0374 11.2146C20.5397 8.02325 19.7419 5.15696 17.6734 2.64525C17.6143 2.58616 17.5848 2.52706 17.5257 2.46796C17.112 1.96562 17.2006 1.34508 17.7325 0.901838C18.2053 0.488146 18.7963 0.517695 19.21 1.02004C20.5397 2.49751 21.4557 4.21137 21.9581 6.13209C22.1649 6.87082 22.3127 7.63911 22.3422 8.40739C22.3422 8.43694 22.3718 8.46649 22.3718 8.49604C22.4013 9.17568 22.4013 9.79622 22.4013 10.4463Z" fill="#00612D"/>
<path d="M11.468 9.5007C11.468 11.6283 11.468 13.7558 11.468 15.8538C11.468 16.0016 11.468 16.1789 11.4384 16.3266C11.3498 17.1245 10.4928 17.5086 9.84276 17.0358C9.34042 16.6812 8.89717 16.2675 8.42437 15.8834C7.1242 14.8196 5.85358 13.7558 4.5534 12.6625C4.40566 12.5443 4.28746 12.5147 4.11016 12.5147C3.31233 12.5147 2.5145 12.5147 1.71667 12.5147C1.50982 12.5147 1.33252 12.5147 1.15522 12.4556C0.741527 12.3374 0.475586 11.9533 0.475586 11.5396C0.475586 10.1803 0.475586 8.82106 0.475586 7.46179C0.475586 6.9299 0.918824 6.51621 1.45071 6.51621C2.3372 6.51621 3.22367 6.51621 4.13971 6.51621C4.28745 6.51621 4.43521 6.45711 4.5534 6.36846C6.26727 4.95009 7.98115 3.53172 9.69501 2.11334C10.0201 1.8474 10.3746 1.6701 10.8179 1.81785C11.202 1.9656 11.4384 2.23154 11.4975 2.64523C11.5271 2.79298 11.5271 2.97028 11.5271 3.11802C11.468 5.24558 11.468 7.37314 11.468 9.5007Z" fill="#00612D"/>
<path d="M17.5847 9.38253C17.5551 11.2441 17.0528 12.8398 16.0186 14.2582C15.6935 14.7014 15.1025 14.8196 14.6297 14.5241C14.0978 14.1695 13.891 13.5786 14.1569 13.0762C14.3047 12.8398 14.482 12.6034 14.6002 12.3375C15.7231 10.2099 15.6049 8.11191 14.2456 6.10255C14.1865 6.0139 14.1274 5.9548 14.0683 5.86615C13.566 5.18651 13.9206 4.27048 14.7479 4.06364C15.1616 3.97499 15.5162 4.12273 15.7822 4.44778C16.7277 5.62976 17.3187 6.95948 17.496 8.4665C17.496 8.55515 17.5256 8.6438 17.5256 8.73245C17.5847 8.99839 17.5847 9.26434 17.5847 9.38253Z" fill="#00612D"/>
</svg>
